<svg width="205" height="110" viewBox="0 0 205 110" fill="none" xmlns="http://www.w3.org/2000/svg">
<path fill-rule="evenodd" clip-rule="evenodd" d="M0.645752 98.6428H2.47533C2.99551 98.6428 3.426 98.8214 3.69505 99.0714C3.89236 99.2857 4.01792 99.5714 4.01792 99.875V99.8928C4.01792 100.607 3.47981 101.036 2.74439 101.125L4.17935 102.982H3.7668L2.38565 101.179H0.968619V102.982H0.645752V98.6428ZM2.43946 100.875C3.15694 100.875 3.69505 100.518 3.69505 99.8928V99.875C3.69505 99.3035 3.24662 98.9285 2.45739 98.9285H0.968619V100.875H2.43946Z" fill="white"/>
<path d="M6.36768 98.6428H9.45285V98.9464H6.69054V100.643H9.18379V100.946H6.69054V102.679H9.48872V102.982H6.36768V98.6428Z" fill="white"/>
<path d="M11.5693 100.822V100.804C11.5693 99.5894 12.5021 98.5715 13.7397 98.5715C14.5289 98.5715 14.9953 98.8573 15.4437 99.268L15.2106 99.5001C14.8339 99.143 14.3855 98.8751 13.7397 98.8751C12.6994 98.8751 11.9101 99.7144 11.9101 100.804C11.9101 101.911 12.7173 102.75 13.7397 102.75C14.3675 102.75 14.798 102.518 15.2464 102.089L15.4617 102.304C14.9953 102.75 14.511 103.054 13.7397 103.054C12.5021 103.054 11.5693 102.072 11.5693 100.822Z" fill="white"/>
<path d="M17.5962 98.6428H17.9191V102.679H20.4661V102.982H17.5962V98.6428Z" fill="white"/>
<path fill-rule="evenodd" clip-rule="evenodd" d="M24.3228 98.625H24.6277L26.6546 102.982H26.2959L25.7398 101.768H23.1748L22.6367 102.982H22.2959L24.3228 98.625ZM25.6143 101.464L24.4663 98.9643L23.3183 101.464H25.6143Z" fill="white"/>
<path d="M28.8608 98.6428H29.1837V102.982H28.8608V98.6428Z" fill="white"/>
<path d="M31.7488 98.6428H32.0537L33.7936 101.214L35.5335 98.6428H35.8384V102.982H35.5156V99.2142L33.8115 101.714H33.7757L32.0537 99.2142V102.982H31.7488V98.6428Z" fill="white"/>
<path d="M42.8877 101.268L41.0222 98.6428H41.4348L43.067 100.964L44.6993 98.6428H45.076L43.2105 101.25V102.982H42.8877V101.268Z" fill="white"/>
<path fill-rule="evenodd" clip-rule="evenodd" d="M46.6006 100.822V100.804C46.6006 99.6251 47.4795 98.5715 48.7889 98.5715C50.0983 98.5715 50.9593 99.6251 50.9593 100.804C50.9772 100.804 50.9772 100.804 50.9593 100.804C50.9593 102 50.0804 103.054 48.771 103.054C47.4616 103.054 46.6006 102 46.6006 100.822ZM50.6364 100.822V100.804C50.6364 99.7501 49.8472 98.8751 48.771 98.8751C47.6947 98.8751 46.9235 99.7322 46.9235 100.804C46.9235 101.875 47.7127 102.75 48.7889 102.75C49.8651 102.75 50.6364 101.893 50.6364 100.822Z" fill="white"/>
<path d="M53.2373 101.179V98.6428H53.5602V101.143C53.5602 102.161 54.1162 102.75 55.031 102.75C55.9099 102.75 56.466 102.214 56.466 101.179V98.6428H56.7888V101.143C56.7888 102.375 56.0714 103.036 55.0131 103.036C53.9727 103.036 53.2373 102.393 53.2373 101.179Z" fill="white"/>
<path fill-rule="evenodd" clip-rule="evenodd" d="M59.2642 98.6428H61.0758C61.6139 98.6428 62.0444 98.8214 62.2955 99.0714C62.5108 99.2857 62.6363 99.5714 62.6363 99.875V99.8928C62.6363 100.607 62.0982 101.036 61.3628 101.125L62.7978 102.982H62.3852L61.0041 101.179H59.587V102.982H59.2642V98.6428ZM61.0399 100.875C61.7753 100.875 62.3135 100.518 62.3135 99.8928V99.875C62.3135 99.3035 61.8471 98.9285 61.0579 98.9285H59.587V100.875H61.0399Z" fill="white"/>
<path fill-rule="evenodd" clip-rule="evenodd" d="M68.0891 98.6428H69.8828C70.3671 98.6428 70.7617 98.7857 71.0128 99.0357C71.1922 99.2142 71.2819 99.4464 71.2819 99.7143V99.7321C71.2819 100.304 70.9052 100.607 70.5465 100.75C71.0667 100.893 71.533 101.179 71.533 101.786C71.533 102.518 70.9052 102.982 69.9725 102.982H68.0891V98.6428ZM69.8469 100.625C70.4927 100.625 70.959 100.321 70.959 99.7321C70.959 99.25 70.5644 98.9285 69.8649 98.9285H68.412V100.625H69.8469ZM69.9904 102.661C70.7259 102.661 71.2102 102.321 71.2102 101.786V101.768C71.2102 101.232 70.7438 100.929 69.8828 100.929H68.412V102.661H69.9904Z" fill="white"/>
<path fill-rule="evenodd" clip-rule="evenodd" d="M75.4615 98.625H75.7664L77.7933 102.982H77.4345L76.8785 101.768H74.3135L73.7754 102.982H73.4346L75.4615 98.625ZM76.7529 101.464L75.605 98.9643L74.457 101.464H76.7529Z" fill="white"/>
<path d="M79.9453 98.6428H80.2682V102.679H82.8152V102.982H79.9453V98.6428Z" fill="white"/>
<path fill-rule="evenodd" clip-rule="evenodd" d="M86.6718 98.625H86.9947L89.0036 102.982H88.6628L88.1068 101.768H85.5418L84.9857 102.982H84.6628L86.6718 98.625ZM87.9633 101.464L86.8153 98.9643L85.6673 101.464H87.9633Z" fill="white"/>
<path d="M91.1741 98.6428H91.479L94.4745 102.411V98.6428H94.7794V102.982H94.5462L91.479 99.125V102.982H91.1741V98.6428Z" fill="white"/>
<path d="M97.1113 100.822V100.804C97.1113 99.5894 98.0441 98.5715 99.2817 98.5715C100.071 98.5715 100.537 98.8573 100.986 99.268L100.753 99.5001C100.376 99.143 99.9274 98.8751 99.2817 98.8751C98.2414 98.8751 97.4521 99.7144 97.4521 100.804C97.4521 101.911 98.2593 102.75 99.2817 102.75C99.9095 102.75 100.34 102.518 100.788 102.089L101.004 102.304C100.537 102.75 100.053 103.054 99.2817 103.054C98.0441 103.054 97.1113 102.072 97.1113 100.822Z" fill="white"/>
<path d="M103.138 98.6428H106.223V98.9464H103.461V100.643H105.936V100.946H103.461V102.679H106.259V102.982H103.138V98.6428Z" fill="white"/>
<path d="M108.43 99.8215H108.824V100.357H108.43V99.8215ZM108.43 102.447H108.824V102.964H108.43V102.447Z" fill="white"/>
<path d="M114.295 101.179V98.6428H114.618V101.143C114.618 102.161 115.174 102.75 116.089 102.75C116.968 102.75 117.524 102.214 117.524 101.179V98.6428H117.846V101.143C117.846 102.375 117.129 103.036 116.071 103.036C115.03 103.036 114.295 102.393 114.295 101.179Z" fill="white"/>
<path d="M120.322 98.6428H120.627L123.622 102.411V98.6428H123.927V102.982H123.676L120.627 99.125V102.982H120.322V98.6428Z" fill="white"/>
<path d="M126.115 98.6428H126.474L127.837 102.5L129.111 98.6428H129.362L130.636 102.5L131.999 98.6428H132.34L130.761 103H130.51L129.237 99.25L127.963 103H127.694L126.115 98.6428Z" fill="white"/>
<path d="M134.582 98.6428H134.905V102.982H134.582V98.6428Z" fill="white"/>
<path d="M137.469 98.6428H137.774L140.77 102.411V98.6428H141.093V102.982H140.842L137.792 99.125V102.982H137.469V98.6428Z" fill="white"/>
<path fill-rule="evenodd" clip-rule="evenodd" d="M143.622 98.6428H145.057C146.42 98.6428 147.371 99.5892 147.371 100.804C147.371 102.036 146.42 102.982 145.057 102.982H143.622V98.6428ZM145.057 102.661C146.277 102.661 147.03 101.839 147.03 100.804C147.03 99.7678 146.277 98.9285 145.057 98.9285H143.945V102.661H145.057Z" fill="white"/>
<path d="M149.147 103.482C149.416 103.339 149.505 103.214 149.488 102.982H149.326V102.447H149.739V102.911C149.739 103.286 149.595 103.5 149.218 103.643L149.147 103.482Z" fill="white"/>
<path fill-rule="evenodd" clip-rule="evenodd" d="M155.227 98.6428H157.057C157.595 98.6428 158.008 98.8214 158.277 99.0714C158.474 99.2857 158.599 99.5714 158.599 99.875V99.8928C158.599 100.607 158.061 101.036 157.326 101.125L158.761 102.982H158.348L156.967 101.179H155.55V102.982H155.227V98.6428ZM157.021 100.875C157.738 100.875 158.277 100.518 158.277 99.8928V99.875C158.277 99.3035 157.828 98.9285 157.039 98.9285H155.55V100.875H157.021Z" fill="white"/>
<path d="M160.949 98.6428H164.052V98.9464H161.272V100.643H163.765V100.946H161.272V102.679H164.07V102.982H160.949V98.6428Z" fill="white"/>
<path d="M166.151 100.822V100.804C166.151 99.5894 167.084 98.5715 168.339 98.5715C169.11 98.5715 169.577 98.8573 170.025 99.268L169.792 99.5001C169.415 99.143 168.985 98.8751 168.321 98.8751C167.281 98.8751 166.492 99.7144 166.492 100.804C166.492 101.911 167.299 102.75 168.339 102.75C168.949 102.75 169.38 102.518 169.828 102.089L170.043 102.304C169.577 102.75 169.093 103.054 168.321 103.054C167.084 103.054 166.151 102.072 166.151 100.822Z" fill="white"/>
<path d="M172.178 98.6428H172.501V100.643H175.281V98.6428H175.604V102.982H175.281V100.946H172.501V102.982H172.178V98.6428Z" fill="white"/>
<path fill-rule="evenodd" clip-rule="evenodd" d="M179.783 98.625H180.088L182.115 102.982H181.756L181.2 101.768H178.635L178.097 102.982H177.756L179.783 98.625ZM181.074 101.464L179.926 98.9643L178.779 101.464H181.074Z" fill="white"/>
<path fill-rule="evenodd" clip-rule="evenodd" d="M184.267 98.6428H186.097C186.617 98.6428 187.048 98.8214 187.317 99.0714C187.514 99.2857 187.639 99.5714 187.639 99.875V99.8928C187.639 100.607 187.101 101.036 186.366 101.125L187.801 102.982H187.388L186.007 101.179H184.59V102.982H184.267V98.6428ZM186.061 100.875C186.779 100.875 187.317 100.518 187.317 99.8928V99.875C187.317 99.3035 186.868 98.9285 186.079 98.9285H184.59V100.875H186.061Z" fill="white"/>
<path d="M189.81 100.822V100.804C189.81 99.643 190.653 98.5715 191.945 98.5715C192.662 98.5715 193.11 98.7858 193.541 99.143L193.326 99.393C192.985 99.0894 192.59 98.8751 191.927 98.8751C190.868 98.8751 190.133 99.7501 190.133 100.804C190.133 101.929 190.832 102.768 191.998 102.768C192.554 102.768 193.057 102.536 193.38 102.268V101.036H191.927V100.732H193.684V102.393C193.308 102.75 192.698 103.054 191.98 103.054C190.617 103.054 189.81 102.036 189.81 100.822Z" fill="white"/>
<path d="M196.106 98.6428H199.191V98.9464H196.429V100.643H198.904V100.946H196.429V102.679H199.227V102.982H196.106V98.6428Z" fill="white"/>
<path d="M201.182 103.482C201.451 103.339 201.541 103.214 201.523 102.982H201.361V102.447H201.774V102.911C201.774 103.286 201.631 103.5 201.254 103.643L201.182 103.482Z" fill="white"/>
<path d="M0.0717482 27.8572H0.215245C0.310909 27.9525 0.430489 28.0001 0.573986 28.0001C0.908811 28.2382 1.3393 28.4525 1.86545 28.643C2.43944 28.9763 2.86993 29.2858 3.15692 29.5715C3.53958 29.9525 3.73091 30.3096 3.73091 30.643V55.5001L12.1434 49.6608V28.643H20.8249C23.085 28.643 24.6635 28.893 27.3002 30.143C32.0715 32.4287 34.4391 37.5537 34.493 38.0001H34.5647L33.7755 27.5715H0V27.7858C0.0478322 27.7858 0.0717482 27.8096 0.0717482 27.8572Z" fill="white"/>
<path d="M34.188 64.3035H34.1163C34.0804 64.7678 31.8024 71.8393 27.3002 74.1071C25.5782 74.9643 23.7128 75.6785 21.4168 75.6785H12.1434V64.1428C15.8025 60.4821 54.3672 24.2857 149.649 21.7321C149.649 21.7321 62.6541 18.1964 6.31384 58.7143C5.50668 59.2678 4.6457 59.8571 3.73091 60.5V73.8214C3.63524 74.2024 3.42 74.5357 3.08517 74.8214C2.70252 75.2024 2.27203 75.4881 1.79371 75.6785C1.55454 75.8214 1.3393 75.9404 1.14797 76.0357C0.956643 76.1309 0.765314 76.2262 0.573986 76.3214C0.478321 76.369 0.406573 76.3928 0.358741 76.3928C0.310909 76.3928 0.263077 76.4166 0.215245 76.4643C0.167413 76.4643 0.11958 76.4881 0.0717482 76.5357H0V76.75H34.3495L34.188 64.3035Z" fill="white"/>
<path d="M62.1157 62.6251C61.5178 61.7917 60.6927 60.9524 59.6404 60.1072C58.5881 59.2739 57.195 58.4286 55.4611 57.5715C54.1218 56.9524 52.8662 56.3929 51.6943 55.8929C50.5224 55.3929 49.4821 54.9048 48.5733 54.4286C47.6645 53.9524 46.9231 53.4524 46.3491 52.9286C45.7631 52.4048 45.4283 51.762 45.3446 51.0001L45.2729 50.1429C45.2609 49.2858 45.4642 48.5536 45.8827 47.9465C46.2893 47.3513 46.8154 46.8513 47.4612 46.4465C48.1069 46.0417 48.8363 45.7322 49.6495 45.5179C50.4626 45.3036 51.2758 45.1965 52.0889 45.1965C53.9066 45.2917 55.4252 45.7917 56.6449 46.6965C57.8766 47.6013 58.899 48.6072 59.7122 49.7144C60.621 50.9524 61.3624 52.381 61.9364 54.0001V45.4108C61.6972 45.4584 61.4581 45.506 61.2189 45.5536C60.9797 45.6013 60.7406 45.637 60.5014 45.6608C60.2622 45.6846 59.9992 45.6965 59.7122 45.6965C59.5209 45.6965 59.3176 45.6965 59.1023 45.6965C58.8871 45.6965 58.6838 45.6489 58.4925 45.5536C57.5239 45.2679 56.4536 45.006 55.2817 44.7679C54.1098 44.5298 52.9021 44.387 51.6584 44.3394H51.5149C49.5538 44.3394 47.8797 44.6132 46.4926 45.1608C45.0935 45.7084 43.9515 46.387 43.0666 47.1965C42.1817 48.0179 41.536 48.9048 41.1294 49.8572C40.7228 50.8096 40.5195 51.7144 40.5195 52.5715C40.5195 53.381 40.6511 54.1667 40.9141 54.9286C41.1772 55.6905 41.6436 56.4405 42.3132 57.1786C42.9829 57.9167 43.9156 58.6667 45.1114 59.4286C46.3192 60.1905 47.8558 61.006 49.7212 61.8751C50.917 62.3989 51.9813 62.8989 52.914 63.3751C53.8468 63.8513 54.648 64.3513 55.3176 64.8751C55.9873 65.3989 56.5134 65.9822 56.8961 66.6251C57.2787 67.2679 57.494 68.0417 57.5418 68.9465V69.3751C57.5418 70.1846 57.4103 70.9703 57.1472 71.7322C56.8841 72.4941 56.5015 73.1786 55.9992 73.7858C55.497 74.381 54.8991 74.8691 54.2055 75.2501C53.5119 75.631 52.7347 75.8215 51.8737 75.8215C50.2474 75.8215 48.7885 75.5596 47.497 75.0358C46.3849 74.5596 45.4104 73.887 44.5733 73.0179C43.7362 72.1608 43.0068 71.2798 42.385 70.3751C41.6675 69.3751 41.0457 68.2798 40.5195 67.0894V75.6072C40.7587 75.5596 41.0218 75.512 41.3088 75.4644C41.5479 75.4167 41.811 75.3691 42.098 75.3215C42.385 75.2739 42.6959 75.2501 43.0307 75.2501L43.9634 75.3215C44.4896 75.4644 45.0217 75.6072 45.5598 75.7501C46.086 75.8929 46.6361 76.012 47.2101 76.1072C47.9754 76.2977 48.6929 76.4405 49.3625 76.5358C50.0322 76.631 50.7736 76.6786 51.5867 76.6786C54.1218 76.6786 56.1666 76.2977 57.7212 75.5358C59.2877 74.7739 60.4775 73.9227 61.2906 72.9822C62.1038 72.0536 62.6539 71.1608 62.9409 70.3036C63.2278 69.4465 63.3953 68.8751 63.4431 68.5894C63.4909 68.3513 63.5268 68.1013 63.5507 67.8394C63.5746 67.5774 63.5866 67.3036 63.5866 67.0179C63.5866 66.3989 63.4909 65.7203 63.2996 64.9822C63.1083 64.2441 62.7136 63.4584 62.1157 62.6251Z" fill="white"/>
<path fill-rule="evenodd" clip-rule="evenodd" d="M129.039 74.5356C129.565 74.8214 130.163 75.0833 130.833 75.3214V75.6785C129.159 75.6785 127.724 75.738 126.528 75.8571C125.332 75.9761 124.328 76.0833 123.515 76.1785C122.606 76.369 121.811 76.5356 121.129 76.6785V71.5892C118.976 73.4583 116.956 74.7618 115.066 75.4999C113.177 76.238 111.467 76.6071 109.936 76.6071C107.293 76.6071 105.302 76.0118 103.963 74.8214C103.341 74.3452 102.767 73.613 102.241 72.6249C101.715 71.6487 101.452 70.5416 101.452 69.3035C101.452 67.2559 102.157 65.3273 103.569 63.5178C104.98 61.7083 107.293 60.2023 110.51 58.9999C112.997 58.0475 115.186 57.2856 117.075 56.7142C118.965 56.1428 120.244 55.4285 120.914 54.5714C120.674 52.5714 120.328 50.9761 119.873 49.7856C119.419 48.5833 118.881 47.6606 118.259 47.0178C117.637 46.3749 116.944 45.9464 116.178 45.7321C115.413 45.5178 114.6 45.4106 113.739 45.4106C112.782 45.4583 111.873 45.6606 111.012 46.0178C110.151 46.3749 109.356 46.8392 108.627 47.4106C107.909 47.994 107.276 48.6666 106.725 49.4285C106.175 50.1904 105.733 50.9999 105.398 51.8571C104.154 54.619 103.162 56.9999 102.421 58.9999C101.679 61.0118 100.962 62.7797 100.268 64.3035C99.5745 65.8273 98.7973 67.2321 97.9363 68.5178C97.0753 69.8035 95.9214 71.113 94.4744 72.4464C93.183 73.6487 91.7121 74.6309 90.0619 75.3928C88.4117 76.1547 86.7017 76.5356 84.9319 76.5356C82.7675 76.5356 80.7406 76.1309 78.8513 75.3214C76.9619 74.5118 75.3117 73.3868 73.9006 71.9464C72.4896 70.5178 71.3835 68.8154 70.5823 66.8392C69.7931 64.863 69.3984 62.7023 69.3984 60.3571C69.3984 57.7856 69.8289 55.5118 70.6899 53.5356C71.5628 51.5595 72.7168 49.8868 74.1518 48.5178C75.5867 47.1606 77.225 46.1368 79.0665 45.4464C80.908 44.7559 82.8154 44.4106 84.7884 44.4106C86.3669 44.4106 87.8138 44.6249 89.1292 45.0535C90.4446 45.4821 91.6165 46.0059 92.6449 46.6249C93.6733 47.244 94.5342 47.9166 95.2278 48.6428C95.9214 49.3571 96.4655 50.0237 96.8601 50.6428C97.1949 51.1666 97.3623 51.5475 97.3623 51.7856C97.3623 52.0237 97.2427 52.2499 97.0036 52.4642C96.7524 52.6785 96.3638 52.9999 95.8377 53.4285C95.3115 53.8095 94.7375 54.1785 94.1157 54.5356C93.4939 54.8928 92.9677 55.0714 92.5372 55.0714C92.1546 55.0714 91.8915 54.7856 91.748 54.2142L91.3893 52.2142C91.0066 50.0237 90.2533 48.3154 89.1292 47.0892C88.0051 45.8749 86.6061 45.244 84.9319 45.1964L84.4297 45.2678C83.0784 45.4583 81.8527 45.9225 80.7526 46.6606C79.6525 47.3987 78.7078 48.369 77.9185 49.5714C77.1293 50.7618 76.5195 52.119 76.089 53.6428C75.6585 55.1666 75.4432 56.7856 75.4432 58.4999L75.515 60.7142C75.6585 62.3452 76.0053 63.8273 76.5553 65.1606C77.1054 66.494 77.8348 67.6725 78.7436 68.6964C79.6525 69.7202 80.6689 70.5773 81.7929 71.2678C82.917 71.9583 84.1307 72.4464 85.4342 72.7321C85.769 72.8273 86.1636 72.9106 86.618 72.9821C87.0724 73.0535 87.4909 73.0654 87.8736 73.0178C90.887 73.0178 93.458 71.8749 95.5865 69.5892C97.727 67.3035 99.6343 63.9404 101.308 59.4999C101.739 58.3095 102.217 57.0595 102.743 55.7499C103.27 54.4404 103.867 53.0237 104.537 51.4999C105.302 49.8333 106.319 48.4226 107.586 47.2678C108.866 46.1249 110.247 45.3392 111.73 44.9106C112.4 44.7202 113.045 44.613 113.667 44.5892C114.289 44.5654 114.935 44.5535 115.604 44.5535C119.383 44.5535 122.247 45.8987 124.196 48.5892C126.133 51.2916 127.102 54.9523 127.102 59.5714L127.245 72.5892C127.245 72.9821 127.425 73.3392 127.784 73.6606C128.142 74.0059 128.561 74.2975 129.039 74.5356ZM121.129 55.5714C120.603 56.0952 119.885 56.5475 118.976 56.9285C118.068 57.3095 117.015 57.7142 115.82 58.1428C113.141 59.0952 111.108 60.5416 109.721 62.4821C108.322 64.4106 107.598 66.5178 107.551 68.8035C107.551 70.2797 108.047 71.5892 109.039 72.7321C110.02 73.8868 111.395 74.4642 113.165 74.4642C114.074 74.4642 115.006 74.2975 115.963 73.9642C116.92 73.5714 117.912 72.9821 118.941 72.1964C119.969 71.4106 120.698 70.7559 121.129 70.2321V55.5714Z" fill="white"/>
<path fill-rule="evenodd" clip-rule="evenodd" d="M167.98 57.4286C168.124 58.2858 168.196 59.2382 168.196 60.2858C168.196 61.012 168.172 61.7084 168.124 62.3751C168.076 63.0417 167.98 63.7084 167.837 64.3751C167.55 65.8989 167.072 67.3632 166.402 68.7679C165.732 70.1727 164.895 71.4346 163.891 72.5536C162.886 73.6846 161.726 74.6072 160.411 75.3215C159.084 76.0358 157.607 76.4644 155.981 76.6072L154.689 76.6786C152.537 76.6786 150.707 76.3572 149.2 75.7144C147.682 75.0715 146.516 74.4644 145.703 73.8929V89.3393C145.703 89.7203 145.894 90.0774 146.277 90.4108C146.659 90.7441 147.096 91.0298 147.586 91.2679C148.112 91.5536 148.734 91.8394 149.451 92.1251V92.3393H135.945V92.1251C136.662 91.8394 137.284 91.5536 137.81 91.2679C138.289 91.0298 138.719 90.7441 139.102 90.4108C139.484 90.0774 139.676 89.7203 139.676 89.3393L139.747 89.1965V54.8572H139.676V47.3394C139.676 46.9584 139.484 46.6013 139.102 46.2679C138.719 45.9346 138.289 45.6489 137.81 45.4108C137.284 45.1251 136.662 44.8632 135.945 44.6251V44.3394C137.619 44.3394 139.066 44.2917 140.286 44.1965C141.505 44.1013 142.522 43.9822 143.335 43.8394C144.244 43.6965 145.033 43.5298 145.703 43.3394V46.3394C146.611 45.8155 147.61 45.3513 148.698 44.9465C149.774 44.5417 150.91 44.3394 152.106 44.3394H152.465C154.426 44.3394 156.208 44.6013 157.81 45.1251C159.424 45.6489 160.853 46.387 162.097 47.3394C165.35 49.7798 167.311 53.1429 167.98 57.4286ZM162.097 59.4286C162.001 57.2858 161.667 55.3334 161.093 53.5715C160.519 51.8096 159.783 50.3096 158.886 49.0715C158.001 47.8215 156.997 46.8632 155.873 46.1965C154.749 45.5298 153.589 45.1965 152.393 45.1965C151.149 45.1965 149.966 45.5536 148.842 46.2679C147.706 46.9822 146.659 48.012 145.703 49.3572V72.5179C146.277 73.1489 147.239 73.7977 148.59 74.4644C149.93 75.131 151.436 75.4644 153.111 75.4644C153.541 75.4644 153.972 75.4405 154.402 75.3929C154.833 75.3453 155.263 75.2501 155.694 75.1072C156.411 74.9167 157.14 74.4882 157.882 73.8215C158.623 73.1429 159.311 72.256 159.945 71.1608C160.566 70.0655 161.069 68.7322 161.451 67.1608C161.834 65.5894 162.049 63.756 162.097 61.6608V59.4286Z" fill="white"/>
<path fill-rule="evenodd" clip-rule="evenodd" d="M181.128 58.1429V58.9286L181.2 60.7144C181.344 62.3453 181.702 63.8394 182.276 65.1965C182.85 66.5536 183.58 67.7441 184.465 68.7679C185.362 69.7917 186.384 70.6489 187.532 71.3394C188.68 72.0298 189.876 72.5179 191.119 72.8036C191.837 72.9941 192.65 73.0893 193.559 73.0893C195.329 73.0893 196.997 72.6608 198.563 71.8036C200.118 70.9465 201.589 69.7322 202.976 68.1608C202.497 69.256 201.852 70.3155 201.039 71.3394C200.225 72.3632 199.281 73.2739 198.204 74.0715C197.116 74.8572 195.938 75.4763 194.671 75.9286C193.403 76.381 192.1 76.6072 190.761 76.6072H190.689C188.489 76.6072 186.438 76.2143 184.536 75.4286C182.647 74.6429 180.997 73.5298 179.586 72.0894C178.175 70.6608 177.075 68.9584 176.285 66.9822C175.496 65.006 175.102 62.8215 175.102 60.4286C175.102 57.8572 175.544 55.5834 176.429 53.6072C177.314 51.631 178.486 49.9584 179.945 48.5894C181.403 47.2322 183.066 46.1965 184.931 45.4822C186.808 44.7679 188.728 44.4108 190.689 44.4108H191.406V44.3394C193.367 44.3394 195.101 44.6727 196.608 45.3394C198.127 46.006 199.412 46.8751 200.465 47.9465C201.517 49.0298 202.33 50.2739 202.904 51.6786C203.478 53.0834 203.837 54.5239 203.98 56.0001C204.028 56.2858 204.064 56.5596 204.088 56.8215C204.112 57.0834 204.124 57.3096 204.124 57.5001V58.1429H181.128ZM181.2 57.2858H197.648C197.601 55.5239 197.409 53.9048 197.074 52.4286C196.74 50.9525 196.297 49.6727 195.747 48.5894C195.197 47.5179 194.551 46.6846 193.81 46.0894C193.069 45.4941 192.267 45.1965 191.406 45.1965C191.072 45.1965 190.844 45.1965 190.725 45.1965C190.605 45.1965 190.402 45.2203 190.115 45.2679C188.871 45.4584 187.729 45.8989 186.689 46.5894C185.661 47.2798 184.752 48.1548 183.962 49.2144C183.173 50.262 182.539 51.4763 182.061 52.8572C181.583 54.2382 181.296 55.7144 181.2 57.2858Z" fill="white"/>
<path fill-rule="evenodd" clip-rule="evenodd" d="M6.38554 88.8751C6.73232 89.2322 6.90571 89.6846 6.90571 90.2322C6.90571 90.4941 6.84592 90.7501 6.72634 91.0001C6.61872 91.2501 6.45131 91.4763 6.2241 91.6787C5.9969 91.8692 5.70991 92.018 5.36312 92.1251C5.01634 92.2442 4.60977 92.3037 4.1434 92.3037H0.466309V92.2501C0.585889 92.2025 0.687532 92.1549 0.771239 92.1072C0.854945 92.0715 0.926693 92.0239 0.986483 91.9644C1.05823 91.9168 1.09411 91.8572 1.09411 91.7858V84.6965C1.09411 84.637 1.05823 84.5775 0.986483 84.518C0.926693 84.4584 0.854945 84.4108 0.771239 84.3751C0.687532 84.3275 0.585889 84.2799 0.466309 84.2322V84.1965H3.6591C4.59183 84.1965 5.29736 84.3811 5.77568 84.7501C6.24204 85.1311 6.47522 85.6311 6.47522 86.2501C6.47522 86.6787 6.3377 87.0656 6.06267 87.4108C5.79959 87.7561 5.39302 88.0061 4.84295 88.1608C5.52456 88.268 6.03875 88.5061 6.38554 88.8751ZM2.4932 88.1072H3.26449C3.58736 88.1072 3.86239 88.0477 4.08959 87.9287C4.3168 87.8096 4.50215 87.6608 4.64564 87.4822C4.8011 87.3037 4.90872 87.1072 4.96851 86.893C5.04026 86.6787 5.07613 86.4644 5.07613 86.2501C5.07613 86.012 5.04624 85.7739 4.98645 85.5358C4.92666 85.3096 4.82501 85.1132 4.68152 84.9465C4.53802 84.768 4.34669 84.6251 4.10753 84.518C3.86837 84.4227 3.56942 84.3751 3.21068 84.3751H2.4932V88.1072ZM5.50662 90.2322C5.50662 89.9227 5.47673 89.6489 5.41694 89.4108C5.35715 89.1727 5.2555 88.9703 5.11201 88.8037C4.96851 88.637 4.77718 88.512 4.53802 88.4287C4.29886 88.3334 3.99991 88.2858 3.64117 88.2858H2.4932V92.1251H3.71292C4.02382 92.1251 4.29288 92.0715 4.52008 91.9644C4.74729 91.8572 4.93264 91.7144 5.07613 91.5358C5.23159 91.3572 5.33921 91.1549 5.399 90.9287C5.47075 90.7025 5.50662 90.4703 5.50662 90.2322Z" fill="white"/>
<path d="M14.3495 84.3751C14.7322 84.3751 15.061 84.4584 15.336 84.6251C15.4795 84.7084 15.6051 84.8037 15.7127 84.9108C15.8323 85.0061 15.9339 85.1072 16.0177 85.2144C16.1133 85.3334 16.191 85.4465 16.2508 85.5537C16.3226 85.6608 16.3824 85.762 16.4302 85.8572C16.5139 86.0596 16.5617 86.1965 16.5737 86.268H16.5916L16.4123 84.1965H10.78V84.2322C10.792 84.2322 10.798 84.2322 10.798 84.2322H10.8159C10.8398 84.2561 10.8637 84.268 10.8877 84.268C10.9355 84.3037 11.0072 84.3394 11.1029 84.3751C11.1986 84.4227 11.2703 84.4703 11.3181 84.518C11.3779 84.5894 11.4078 84.6489 11.4078 84.6965V91.8215C11.3959 91.8811 11.36 91.9346 11.3002 91.9822C11.2404 92.0418 11.1687 92.0894 11.085 92.1251C11.0491 92.1489 11.0132 92.1668 10.9773 92.1787C10.9415 92.2025 10.9116 92.2203 10.8877 92.2322C10.8637 92.2442 10.8518 92.2501 10.8518 92.2501C10.8398 92.2501 10.8279 92.2501 10.8159 92.2501C10.8159 92.2501 10.8099 92.2561 10.798 92.268H10.78V92.3037H16.4123L16.5916 90.2322H16.5737C16.5617 90.3037 16.5139 90.4346 16.4302 90.6251C16.3345 90.8275 16.197 91.0418 16.0177 91.268C15.8383 91.4942 15.6111 91.6906 15.336 91.8573C15.073 92.0358 14.7441 92.1251 14.3495 92.1251H12.8069V88.3394H14.4751C14.5349 88.3394 14.5946 88.3692 14.6544 88.4287C14.7023 88.4763 14.7501 88.5477 14.7979 88.643C14.8218 88.6787 14.8398 88.7203 14.8517 88.768C14.8637 88.8037 14.8816 88.8394 14.9056 88.8751C14.9056 88.887 14.9056 88.8989 14.9056 88.9108C14.9056 88.9108 14.9115 88.9168 14.9235 88.9287C14.9235 88.9406 14.9295 88.9465 14.9414 88.9465V88.9644H14.9773V87.5358H14.9414C14.9295 87.5477 14.9235 87.5596 14.9235 87.5715C14.9115 87.5715 14.9056 87.5775 14.9056 87.5894C14.9056 87.6013 14.9056 87.6132 14.9056 87.6251C14.8816 87.6608 14.8637 87.6965 14.8517 87.7322C14.8398 87.768 14.8218 87.8037 14.7979 87.8394C14.7501 87.9346 14.7023 88.0061 14.6544 88.0537C14.5827 88.1251 14.5229 88.1608 14.4751 88.1608H12.8069V84.3751H14.3495Z" fill="white"/>
<path d="M26.4212 84.2142C26.481 84.2261 26.5348 84.2499 26.5827 84.2856C26.6185 84.3094 26.6544 84.3392 26.6903 84.3749C26.7142 84.4225 26.7262 84.4701 26.7262 84.5178L26.7082 84.607L24.4123 87.6785L22.7262 84.8392C22.7142 84.8035 22.7083 84.7737 22.7083 84.7499C22.6963 84.738 22.6903 84.7201 22.6903 84.6963C22.6903 84.6249 22.7262 84.5594 22.798 84.4999C22.8577 84.4404 22.9295 84.3928 23.0132 84.357C23.0969 84.3094 23.1985 84.2618 23.3181 84.2142V84.1785H20.3406V84.2142C20.4362 84.2618 20.5259 84.3154 20.6096 84.3749C20.6814 84.4225 20.7471 84.4701 20.8069 84.5178C20.8787 84.5773 20.9325 84.6368 20.9684 84.6963C21.0042 84.7558 21.076 84.857 21.1836 84.9999C21.2793 85.1428 21.3749 85.2975 21.4706 85.4642L23.2643 88.4642V91.7856C23.2643 91.8451 23.2284 91.9047 23.1567 91.9642C23.0969 92.0118 23.0252 92.0594 22.9414 92.107C22.8577 92.1547 22.7561 92.2023 22.6365 92.2499V92.2856H25.2912V92.2499C25.1716 92.2023 25.064 92.1547 24.9683 92.107C24.8966 92.0594 24.8248 92.0118 24.7531 91.9642C24.6933 91.9047 24.6634 91.8451 24.6634 91.7856V87.607L26.8697 84.6249C26.9414 84.5654 27.0251 84.5118 27.1208 84.4642C27.2164 84.4047 27.3181 84.357 27.4257 84.3213C27.5453 84.2856 27.6709 84.2499 27.8024 84.2142V84.1785H26.4212V84.2142Z" fill="white"/>
<path fill-rule="evenodd" clip-rule="evenodd" d="M38.3314 86.643C38.5227 87.143 38.6184 87.6787 38.6184 88.2501C38.6184 88.8215 38.5227 89.3513 38.3314 89.8394C38.1401 90.3394 37.871 90.768 37.5242 91.1251C37.1775 91.4941 36.7649 91.7799 36.2866 91.9822C35.8083 92.1965 35.2821 92.3037 34.7081 92.3037C34.1222 92.3037 33.5901 92.1965 33.1117 91.9822C32.6334 91.7799 32.2268 91.4941 31.892 91.1251C31.5452 90.768 31.2762 90.3394 31.0848 89.8394C30.8935 89.3513 30.7979 88.8215 30.7979 88.2501C30.7979 87.6787 30.8935 87.143 31.0848 86.643C31.2762 86.1549 31.5452 85.7322 31.892 85.3751C32.2268 85.0061 32.6334 84.7144 33.1117 84.5001C33.5901 84.2977 34.1222 84.1965 34.7081 84.1965C35.2821 84.1965 35.8083 84.2977 36.2866 84.5001C36.7649 84.7144 37.1775 85.0061 37.5242 85.3751C37.871 85.7322 38.1401 86.1549 38.3314 86.643ZM37.2911 89.0537C37.2911 88.8513 37.2791 88.643 37.2552 88.4287C37.2313 88.2263 37.2014 88.012 37.1655 87.7858C37.0579 87.2263 36.9024 86.7322 36.6991 86.3037C36.4959 85.887 36.2627 85.5358 35.9996 85.2501C35.7365 84.9644 35.4555 84.7442 35.1566 84.5894C34.8576 84.4465 34.5587 84.3751 34.2597 84.3751C34.2119 84.3751 34.164 84.3751 34.1162 84.3751C34.0684 84.3751 34.0205 84.3811 33.9727 84.393C33.6977 84.4406 33.4466 84.5537 33.2194 84.7322C33.0041 84.9108 32.8128 85.137 32.6454 85.4108C32.478 85.6846 32.3524 86.0001 32.2687 86.3572C32.173 86.7144 32.1252 87.1072 32.1252 87.5358C32.1252 87.7144 32.1372 87.9049 32.1611 88.1072C32.173 88.3096 32.2029 88.512 32.2508 88.7144C32.3464 89.2144 32.4839 89.6727 32.6633 90.0894C32.8546 90.5061 33.0759 90.8632 33.327 91.1608C33.5901 91.4703 33.8711 91.7084 34.17 91.8751C34.469 92.0537 34.7799 92.143 35.1027 92.143C35.2104 92.143 35.318 92.1311 35.4256 92.1072C36.0235 91.9882 36.4839 91.6549 36.8068 91.1072C37.1296 90.5596 37.2911 89.8751 37.2911 89.0537Z" fill="white"/>
<path d="M48.0353 84.2322H48.0533C48.0652 84.2442 48.0712 84.2501 48.0712 84.2501C48.0832 84.262 48.0951 84.268 48.1071 84.268C48.1071 84.268 48.119 84.268 48.143 84.268C48.1669 84.2918 48.2028 84.3096 48.2506 84.3215C48.2865 84.3334 48.3223 84.3513 48.3582 84.3751C48.4539 84.4227 48.5256 84.4703 48.5734 84.518C48.6213 84.5656 48.6512 84.6251 48.6631 84.6965V89.8394L44.5735 84.1965H42.4749V84.2322H42.4928C42.4928 84.2442 42.4988 84.2501 42.5107 84.2501C42.5227 84.262 42.5287 84.268 42.5287 84.268C42.5406 84.268 42.5526 84.268 42.5645 84.268C42.6004 84.2918 42.6363 84.3096 42.6722 84.3215C42.708 84.3334 42.7439 84.3513 42.7798 84.3751C42.8754 84.4227 42.9472 84.4703 42.995 84.518C43.0668 84.5894 43.1027 84.6489 43.1027 84.6965V91.7858C43.1027 91.8453 43.0668 91.9049 42.995 91.9644C42.9233 92.0358 42.8515 92.0894 42.7798 92.1251C42.7439 92.137 42.708 92.1549 42.6722 92.1787C42.6363 92.1906 42.6004 92.2025 42.5645 92.2144L42.5107 92.2501H42.4928C42.4928 92.262 42.4868 92.268 42.4749 92.268V92.3037H43.8919V92.268C43.8919 92.268 43.8919 92.262 43.8919 92.2501H43.856C43.856 92.2501 43.85 92.2442 43.8381 92.2322C43.8261 92.2322 43.8201 92.2263 43.8201 92.2144C43.7843 92.2025 43.7484 92.1906 43.7125 92.1787C43.6766 92.1549 43.6408 92.137 43.6049 92.1251C43.5092 92.0894 43.4375 92.0418 43.3896 91.9822C43.3179 91.9227 43.282 91.8632 43.282 91.8037V84.7858L48.6631 92.2501V92.3037H48.8425V84.6965C48.8425 84.6489 48.8784 84.5894 48.9501 84.518C48.998 84.4703 49.0697 84.4227 49.1654 84.3751C49.2012 84.3513 49.2371 84.3334 49.273 84.3215C49.3089 84.3096 49.3447 84.2918 49.3806 84.268C49.3926 84.268 49.4045 84.268 49.4165 84.268C49.4165 84.268 49.4225 84.262 49.4344 84.2501C49.4464 84.2501 49.4524 84.2442 49.4524 84.2322H49.4703V84.1965H48.0353V84.2322Z" fill="white"/>
<path fill-rule="evenodd" clip-rule="evenodd" d="M59.9815 86.7144C60.137 87.2025 60.2147 87.7144 60.2147 88.2501C60.2147 88.7858 60.131 89.2977 59.9636 89.7858C59.7962 90.2739 59.557 90.7025 59.2461 91.0715C58.9232 91.4525 58.5346 91.7501 58.0802 91.9644C57.6377 92.1906 57.1295 92.3037 56.5555 92.3037H53.2192V92.2501C53.3388 92.2025 53.4405 92.1549 53.5242 92.1072C53.6079 92.0715 53.6796 92.0239 53.7394 91.9644C53.8112 91.9168 53.847 91.8572 53.847 91.7858V90.4465V86.0715C53.847 86.0715 53.847 86.0596 53.847 86.0358V84.6965C53.847 84.637 53.8112 84.5775 53.7394 84.518C53.6796 84.4584 53.6079 84.4108 53.5242 84.3751C53.4405 84.3275 53.3388 84.2799 53.2192 84.2322V84.1965H56.5376C57.1475 84.1965 57.6796 84.3037 58.134 84.518C58.6004 84.7441 58.983 85.0477 59.282 85.4287C59.5929 85.7977 59.8261 86.2263 59.9815 86.7144ZM58.8156 88.2501C58.8156 87.7739 58.7797 87.3037 58.708 86.8394C58.6482 86.3751 58.5226 85.9644 58.3313 85.6072C58.14 85.2382 57.8769 84.9406 57.5421 84.7144C57.2072 84.4882 56.7708 84.3751 56.2327 84.3751H55.2641V92.1251H56.2147C56.705 92.1251 57.1176 91.9942 57.4524 91.7322C57.7872 91.4703 58.0563 91.143 58.2595 90.7501C58.4628 90.3572 58.6063 89.9406 58.69 89.5001C58.7737 89.0477 58.8156 88.6311 58.8156 88.2501Z" fill="white"/>
<path d="M69.4881 84.1965V84.2322L69.3267 86.2501C69.3386 86.1906 69.3924 86.0596 69.4881 85.8572C69.5718 85.6668 69.7033 85.4644 69.8827 85.2501C70.0501 85.0358 70.2654 84.8394 70.5284 84.6608C70.7915 84.4822 71.1024 84.387 71.4612 84.3751H72.071V91.7858C72.071 91.8572 72.0352 91.9168 71.9634 91.9644C71.9036 92.0239 71.8319 92.0715 71.7482 92.1072C71.6645 92.1549 71.5628 92.2025 71.4432 92.2501V92.3037H74.08V92.2501C73.9604 92.2025 73.8588 92.1549 73.775 92.1072C73.6913 92.0715 73.6196 92.0239 73.5598 91.9644C73.5 91.9168 73.4701 91.8572 73.4701 91.7858V84.3751H74.0441C74.4028 84.387 74.7138 84.4822 74.9768 84.6608C75.2519 84.8394 75.4731 85.0358 75.6405 85.2501C75.8079 85.4644 75.9395 85.6668 76.0351 85.8572C76.1308 86.0596 76.1786 86.1906 76.1786 86.2501H76.1965L76.0351 84.1965H69.4881Z" fill="white"/>
<path fill-rule="evenodd" clip-rule="evenodd" d="M86.8873 92.143C86.983 92.1906 87.0846 92.2322 87.1923 92.268V92.3037H85.5959L84.9681 92.2858C84.9681 91.8334 84.9023 91.4108 84.7708 91.018C84.6392 90.6251 84.4718 90.2858 84.2685 90.0001C84.0652 89.7144 83.838 89.4882 83.5869 89.3215C83.3358 89.1668 83.0907 89.0894 82.8515 89.0894H82.0443V91.8037C82.0443 91.8632 82.0742 91.9227 82.134 91.9822C82.2058 92.0418 82.2775 92.0894 82.3493 92.1251C82.4449 92.1727 82.5526 92.2203 82.6721 92.268V92.3037H80.0174V92.268C80.137 92.2203 80.2387 92.1727 80.3224 92.1251C80.4061 92.0894 80.4778 92.0418 80.5376 91.9822C80.6094 91.9227 80.6452 91.8572 80.6452 91.7858V84.6965C80.6452 84.637 80.6094 84.5775 80.5376 84.518C80.4659 84.4703 80.3941 84.4227 80.3224 84.3751C80.2267 84.3275 80.1191 84.2799 79.9995 84.2322V84.1965H83.9277C84.3821 84.1965 84.7887 84.262 85.1474 84.393C85.4942 84.5358 85.7872 84.7263 86.0264 84.9644C86.2655 85.1906 86.4449 85.4525 86.5645 85.7501C86.6841 86.0477 86.7438 86.3572 86.7438 86.6787C86.7438 86.9168 86.696 87.1608 86.6003 87.4108C86.5047 87.6608 86.3672 87.8989 86.1878 88.1251C85.9965 88.3513 85.7633 88.5477 85.4883 88.7144C85.2252 88.8691 84.9202 88.9763 84.5735 89.0358C84.7289 89.0477 84.9083 89.0953 85.1116 89.1787C85.3268 89.2739 85.5361 89.4287 85.7394 89.643C85.9427 89.8572 86.122 90.143 86.2775 90.5001C86.4329 90.8572 86.5286 91.2977 86.5645 91.8215C86.5884 91.893 86.6302 91.9525 86.69 92.0001C86.7498 92.0477 86.8156 92.0953 86.8873 92.143ZM84.3403 88.7144C84.5675 88.5834 84.7588 88.4108 84.9143 88.1965C85.0578 87.9822 85.1654 87.7442 85.2371 87.4822C85.2969 87.2084 85.3268 86.9406 85.3268 86.6787C85.3268 86.3215 85.2969 86.0061 85.2371 85.7322C85.1773 85.4465 85.0757 85.2025 84.9322 85.0001C84.7887 84.7977 84.5974 84.643 84.3582 84.5358C84.1191 84.4287 83.8201 84.3751 83.4614 84.3751H82.0443V88.9108H83.5331C83.844 88.9108 84.1131 88.8453 84.3403 88.7144Z" fill="white"/>
<path fill-rule="evenodd" clip-rule="evenodd" d="M97.9902 92.1251C98.0739 92.1846 98.1577 92.2322 98.2414 92.268V92.3037H95.3894V92.268C95.5209 92.2203 95.6405 92.1727 95.7481 92.1251C95.8318 92.0894 95.9155 92.0418 95.9992 91.9822C96.071 91.9227 96.1068 91.8572 96.1068 91.7858C96.1068 91.7382 96.0889 91.6489 96.053 91.518L95.2997 89.5537H92.7347L91.784 91.8394V91.893C91.784 91.9644 91.802 92.018 91.8378 92.0537C91.8737 92.0894 91.9215 92.1251 91.9813 92.1608C92.0411 92.1965 92.1129 92.2263 92.1966 92.2501V92.3037H90.7795V92.2501C90.9111 92.2263 91.0307 92.1906 91.1383 92.143C91.222 92.0953 91.3057 92.0477 91.3894 92.0001C91.4851 91.9525 91.5508 91.893 91.5867 91.8215L92.5732 89.4822V89.4108H92.5912L94.7616 84.1965L97.1472 90.4465L97.6494 91.7858C97.6614 91.8572 97.7032 91.9227 97.775 91.9822C97.8467 92.0418 97.9185 92.0894 97.9902 92.1251ZM95.2459 89.4108L94.08 86.3394L92.8064 89.4108H95.2459Z" fill="white"/>
<path d="M106.743 84.2322C106.815 84.2799 106.881 84.3156 106.941 84.3394C107 84.387 107.054 84.4287 107.102 84.4644C107.138 84.5001 107.156 84.5537 107.156 84.6251V84.643L104.788 90.0537L103.192 85.893C103.096 85.5715 103.006 85.3156 102.923 85.1251C102.851 84.9465 102.815 84.8096 102.815 84.7144V84.6965C102.815 84.637 102.851 84.5775 102.923 84.518C103.006 84.4703 103.096 84.4227 103.192 84.3751C103.288 84.3275 103.407 84.2799 103.551 84.2322V84.1965H100.645V84.2322C100.717 84.2799 100.794 84.3215 100.878 84.3572C100.938 84.393 100.998 84.4346 101.057 84.4822C101.129 84.5299 101.183 84.5775 101.219 84.6251L104.125 92.3037L107.299 84.6965C107.323 84.637 107.377 84.5775 107.461 84.518C107.557 84.4584 107.652 84.4108 107.748 84.3751C107.855 84.3275 107.981 84.2799 108.125 84.2322V84.1965H106.743V84.2322Z" fill="white"/>
<path d="M115.443 84.3751C115.814 84.3751 116.143 84.4584 116.43 84.6251C116.561 84.7084 116.687 84.8037 116.806 84.9108C116.914 85.0061 117.015 85.1072 117.111 85.2144C117.195 85.3334 117.273 85.4465 117.344 85.5537C117.404 85.6608 117.458 85.762 117.506 85.8572C117.601 86.0596 117.649 86.1965 117.649 86.268H117.667L117.506 84.1965H111.874V84.2322H111.909C111.921 84.2561 111.939 84.268 111.963 84.268C112.023 84.3037 112.095 84.3394 112.178 84.3751C112.274 84.4227 112.346 84.4703 112.394 84.518C112.465 84.5894 112.501 84.6489 112.501 84.6965V91.8215C112.477 91.8811 112.442 91.9346 112.394 91.9822C112.322 92.0418 112.244 92.0894 112.161 92.1251C112.125 92.1489 112.089 92.1668 112.053 92.1787C112.029 92.2025 111.999 92.2203 111.963 92.2322C111.951 92.2442 111.939 92.2501 111.927 92.2501C111.915 92.2501 111.909 92.2501 111.909 92.2501C111.897 92.2501 111.885 92.2561 111.874 92.268V92.3037H117.506L117.667 90.2322H117.649C117.649 90.3037 117.601 90.4346 117.506 90.6251C117.41 90.8275 117.279 91.0418 117.111 91.268C116.92 91.4942 116.693 91.6906 116.43 91.8573C116.155 92.0358 115.826 92.1251 115.443 92.1251H113.9V88.3394H115.551C115.61 88.3394 115.67 88.3692 115.73 88.4287C115.778 88.4763 115.832 88.5477 115.891 88.643C115.903 88.6787 115.915 88.7203 115.927 88.768C115.951 88.8037 115.969 88.8394 115.981 88.8751C115.993 88.887 115.999 88.8989 115.999 88.9108C115.999 88.9108 115.999 88.9168 115.999 88.9287C115.999 88.9406 116.005 88.9465 116.017 88.9465V88.9644H116.071V87.5358H116.017C116.005 87.5477 115.999 87.5596 115.999 87.5715C115.999 87.5715 115.999 87.5775 115.999 87.5894C115.999 87.6013 115.993 87.6132 115.981 87.6251C115.969 87.6608 115.951 87.6965 115.927 87.7322C115.915 87.768 115.903 87.8037 115.891 87.8394C115.832 87.9346 115.778 88.0061 115.73 88.0537C115.658 88.1251 115.598 88.1608 115.551 88.1608H113.9V84.3751H115.443Z" fill="white"/>
<path d="M127.156 90.6249C127.072 90.8273 126.935 91.0356 126.743 91.2499C126.564 91.4761 126.337 91.6725 126.062 91.8392C125.787 92.0178 125.464 92.107 125.093 92.107H123.425V84.6249C123.449 84.5773 123.491 84.5237 123.551 84.4642C123.622 84.4166 123.694 84.3749 123.766 84.3392C123.85 84.2916 123.939 84.2499 124.035 84.2142V84.1785H121.506V84.2142C121.625 84.2618 121.733 84.3094 121.829 84.357C121.9 84.3928 121.972 84.4404 122.044 84.4999C122.104 84.5594 122.134 84.6249 122.134 84.6963L122.152 90.4463V91.7856C122.152 91.8451 122.116 91.9047 122.044 91.9642C121.984 92.0118 121.912 92.0594 121.829 92.107C121.745 92.1547 121.643 92.2023 121.524 92.2499V92.2856H127.156L127.317 90.2142C127.306 90.2737 127.252 90.4106 127.156 90.6249Z" fill="white"/>
<path fill-rule="evenodd" clip-rule="evenodd" d="M156.214 6.82143C156.214 12.0893 149.362 18.7679 149.362 18.7679C149.362 18.7679 142.492 12.2143 142.492 6.82143C142.492 3.05357 145.577 0 149.362 0C153.147 0 156.214 3.05357 156.214 6.82143ZM152.788 6.82143C152.788 4.94643 151.263 3.41071 149.362 3.41071C147.461 3.41071 145.918 4.94643 145.918 6.82143C145.918 8.71428 147.461 10.25 149.362 10.25C151.263 10.25 152.788 8.71428 152.788 6.82143Z" fill="white"/>
<path fill-rule="evenodd" clip-rule="evenodd" d="M30.6008 107.036H30.7981L32.1613 109.946H31.9102L31.5514 109.143H29.8295L29.4707 109.946H29.2375L30.6008 107.036ZM31.4617 108.946L30.7084 107.268L29.9371 108.946H31.4617Z" fill="#E6E7E8"/>
<path d="M34.762 107.053H34.9593L36.9682 109.571V107.053H37.1835V109.946H37.022L34.9772 107.375V109.946H34.762V107.053Z" fill="#E6E7E8"/>
<path fill-rule="evenodd" clip-rule="evenodd" d="M40.0354 107.053H41.004C41.9188 107.053 42.5466 107.678 42.5466 108.5C42.5466 109.321 41.9188 109.946 41.004 109.946H40.0354V107.053ZM41.004 109.75C41.8112 109.75 42.3313 109.214 42.3313 108.518V108.5C42.3313 107.821 41.8112 107.25 41.004 107.25H40.2506V109.75H41.004Z" fill="#E6E7E8"/>
<path d="M48.5198 107.053H50.5646V107.25H48.735V108.446H50.3852V108.643H48.735V109.946H48.5198V107.053Z" fill="#E6E7E8"/>
<path d="M53.2729 107.053H53.4882V109.946H53.2729V107.053Z" fill="#E6E7E8"/>
<path d="M56.376 107.053H56.5733L58.5822 109.571V107.053H58.7975V109.946H58.636L56.5912 107.375V109.946H56.376V107.053Z" fill="#E6E7E8"/>
<path fill-rule="evenodd" clip-rule="evenodd" d="M61.6497 107.053H62.6183C63.533 107.053 64.1608 107.678 64.1608 108.5C64.1608 109.321 63.533 109.946 62.6183 109.946H61.6497V107.053ZM62.6183 109.75C63.4254 109.75 63.9456 109.214 63.9456 108.518V108.5C63.9456 107.821 63.4254 107.25 62.6183 107.25H61.8649V109.75H62.6183Z" fill="#E6E7E8"/>
<path d="M70.1338 107.053H70.349V108.393H72.2145V107.053H72.4297V109.946H72.2145V108.589H70.349V109.946H70.1338V107.053Z" fill="#E6E7E8"/>
<path fill-rule="evenodd" clip-rule="evenodd" d="M76.3939 107.036H76.6091L77.9544 109.946H77.7212L77.3445 109.143H75.6405L75.2638 109.946H75.0486L76.3939 107.036ZM77.2548 108.946L76.4835 107.268L75.7123 108.946H77.2548Z" fill="#E6E7E8"/>
<path fill-rule="evenodd" clip-rule="evenodd" d="M80.5732 107.053H81.793C82.1517 107.053 82.4387 107.161 82.6001 107.339C82.7436 107.482 82.8333 107.678 82.8333 107.875V107.893C82.8333 108.375 82.4566 108.643 81.9723 108.714L82.9409 109.946H82.6539L81.7392 108.75H80.7885V109.946H80.5732V107.053ZM81.7571 108.553C82.2414 108.553 82.6181 108.321 82.6181 107.893C82.6181 107.5 82.2952 107.25 81.775 107.25H80.7885V108.553H81.7571Z" fill="#E6E7E8"/>
<path d="M85.5598 107.053H85.7751L86.941 108.768L88.1069 107.053H88.3042V109.946H88.0889V107.446L86.941 109.107H86.923L85.7751 107.446V109.946H85.5598V107.053Z" fill="#E6E7E8"/>
<path fill-rule="evenodd" clip-rule="evenodd" d="M91.0305 108.518V108.5C91.0305 107.714 91.6224 107 92.5014 107C93.3803 107 93.9543 107.714 93.9543 108.5C93.9662 108.5 93.9662 108.5 93.9543 108.5C93.9543 109.286 93.3803 110 92.5014 110C91.6045 110 91.0305 109.304 91.0305 108.518ZM93.739 108.518V108.5C93.739 107.786 93.2188 107.196 92.5014 107.196C91.7839 107.196 91.2637 107.786 91.2637 108.5C91.2637 109.214 91.7839 109.804 92.5014 109.804C93.2188 109.804 93.739 109.232 93.739 108.518Z" fill="#E6E7E8"/>
<path d="M96.6985 107.053H96.8958L98.9048 109.571V107.053H99.1021V109.946H98.9406L96.8958 107.375V109.946H96.6985V107.053Z" fill="#E6E7E8"/>
<path d="M102.923 108.803L101.667 107.053H101.936L103.03 108.607L104.125 107.053H104.376L103.138 108.803V109.946H102.923V108.803Z" fill="#E6E7E8"/>
<path d="M110.976 107.25H109.972V107.053H112.214V107.25H111.192V109.946H110.976V107.25Z" fill="#E6E7E8"/>
<path d="M114.869 107.053H115.084V108.393H116.932V107.053H117.165V109.946H116.932V108.589H115.084V109.946H114.869V107.053Z" fill="#E6E7E8"/>
<path fill-rule="evenodd" clip-rule="evenodd" d="M120.017 107.053H121.237C121.595 107.053 121.882 107.161 122.062 107.339C122.187 107.482 122.277 107.678 122.277 107.875V107.893C122.277 108.375 121.918 108.643 121.416 108.714L122.385 109.946H122.115L121.183 108.75H120.232V109.946H120.017V107.053ZM121.219 108.553C121.703 108.553 122.062 108.321 122.062 107.893C122.062 107.5 121.757 107.25 121.219 107.25H120.232V108.553H121.219Z" fill="#E6E7E8"/>
<path fill-rule="evenodd" clip-rule="evenodd" d="M124.878 108.518V108.5C124.878 107.714 125.47 107 126.349 107C127.228 107 127.802 107.714 127.802 108.5C127.814 108.5 127.814 108.5 127.802 108.5C127.802 109.286 127.228 110 126.349 110C125.47 110 124.878 109.304 124.878 108.518ZM127.586 108.518V108.5C127.586 107.786 127.066 107.196 126.349 107.196C125.631 107.196 125.111 107.786 125.111 108.5C125.111 109.214 125.631 109.804 126.349 109.804C127.066 109.804 127.586 109.232 127.586 108.518Z" fill="#E6E7E8"/>
<path d="M130.492 108.75V107.053H130.707V108.732C130.707 109.411 131.084 109.803 131.694 109.803C132.286 109.803 132.663 109.446 132.663 108.75V107.053H132.878V108.732C132.878 109.553 132.394 110 131.694 110C130.994 110 130.492 109.553 130.492 108.75Z" fill="#E6E7E8"/>
<path d="M135.568 108.518V108.5C135.568 107.714 136.124 107 137.003 107C137.47 107 137.775 107.143 138.062 107.393L137.918 107.554C137.685 107.357 137.434 107.196 136.985 107.196C136.286 107.196 135.784 107.804 135.784 108.5C135.784 109.25 136.25 109.804 137.039 109.804C137.398 109.804 137.739 109.661 137.954 109.482V108.643H136.985V108.446H138.169V109.571C137.9 109.804 137.506 110 137.021 110C136.106 110 135.568 109.321 135.568 108.518Z" fill="#E6E7E8"/>
<path d="M140.949 107.053H141.165V108.393H143.012V107.053H143.227V109.946H143.012V108.589H141.165V109.946H140.949V107.053Z" fill="#E6E7E8"/>
<path d="M150.133 107.25H149.129V107.053H151.371V107.25H150.348V109.946H150.133V107.25Z" fill="#E6E7E8"/>
<path fill-rule="evenodd" clip-rule="evenodd" d="M154.025 107.053H155.245C155.604 107.053 155.891 107.161 156.052 107.339C156.196 107.482 156.285 107.678 156.285 107.875V107.893C156.285 108.375 155.927 108.643 155.424 108.714L156.393 109.946H156.106L155.191 108.75H154.241V109.946H154.025V107.053ZM155.209 108.553C155.711 108.553 156.07 108.321 156.07 107.893C156.07 107.5 155.765 107.25 155.227 107.25H154.241V108.553H155.209Z" fill="#E6E7E8"/>
<path fill-rule="evenodd" clip-rule="evenodd" d="M160.124 107.036H160.339L161.685 109.946H161.452L161.075 109.143H159.371L158.994 109.946H158.761L160.124 107.036ZM161.003 108.946L160.232 107.268L159.461 108.946H161.003Z" fill="#E6E7E8"/>
<path d="M163.64 107.053H163.873L165.003 109.714L166.151 107.053H166.384L165.093 109.964H164.913L163.64 107.053Z" fill="#E6E7E8"/>
<path d="M168.985 107.053H171.066V107.25H169.201V108.393H170.869V108.589H169.201V109.75H171.084V109.946H168.985V107.053Z" fill="#E6E7E8"/>
<path d="M173.774 107.053H173.989V109.75H175.693V109.946H173.774V107.053Z" fill="#E6E7E8"/>
<path d="M26.5649 108.554H0.62793V108.214H26.5649V108.554Z" fill="#E6E7E8"/>
<path d="M204.124 108.554H178.205V108.214H204.124V108.554Z" fill="#E6E7E8"/>
</svg>
