<svg width="17" height="17" viewBox="0 0 17 17" fill="none" xmlns="http://www.w3.org/2000/svg">
<path d="M14.39 9.29166C14.2159 9.29166 14.0338 9.23625 13.8596 9.19666C13.5069 9.11894 13.1603 9.01576 12.8225 8.88791C12.4553 8.7543 12.0516 8.76124 11.6891 8.90739C11.3266 9.05355 11.031 9.32858 10.8592 9.67958L10.685 10.0358C9.91394 9.60689 9.20538 9.07414 8.57919 8.4525C7.95754 7.8263 7.42479 7.11775 6.99585 6.34666L7.32835 6.125C7.67935 5.95314 7.95439 5.65754 8.10054 5.29509C8.24669 4.93263 8.25363 4.52893 8.12002 4.16166C7.99432 3.82316 7.89118 3.47671 7.81127 3.12458C7.77169 2.95041 7.74002 2.76833 7.71627 2.58625C7.62013 2.02861 7.32805 1.52363 6.89264 1.16223C6.45722 0.800831 5.90707 0.606771 5.34127 0.614997H2.96627C2.62509 0.611794 2.28722 0.682141 1.97566 0.821251C1.66411 0.96036 1.38619 1.16496 1.16082 1.42114C0.935446 1.67731 0.767917 1.97903 0.669634 2.30577C0.571352 2.63251 0.544623 2.97659 0.591269 3.31458C1.01302 6.63117 2.52771 9.71273 4.89608 12.0725C7.26444 14.4323 10.3515 15.9357 13.6696 16.3454H13.9704C14.5542 16.3463 15.1179 16.1321 15.5538 15.7437C15.8042 15.5197 16.0043 15.2451 16.1408 14.9381C16.2772 14.631 16.347 14.2985 16.3454 13.9625V11.5875C16.3357 11.0376 16.1355 10.5081 15.7789 10.0894C15.4223 9.6707 14.9314 9.38874 14.39 9.29166ZM14.7859 14.0417C14.7857 14.1541 14.7616 14.2652 14.7152 14.3675C14.6688 14.4699 14.6011 14.5612 14.5167 14.6354C14.4282 14.7118 14.3248 14.7688 14.213 14.8029C14.1012 14.837 13.9835 14.8474 13.8675 14.8333C10.9026 14.4532 8.14871 13.0968 6.04009 10.9781C3.93147 8.85949 2.58818 6.09914 2.2221 3.1325C2.2095 3.01653 2.22054 2.89922 2.25456 2.78764C2.28858 2.67606 2.34487 2.57254 2.42002 2.48333C2.49421 2.39888 2.58553 2.3312 2.6879 2.28479C2.79028 2.23838 2.90136 2.21431 3.01377 2.21416H5.38877C5.57287 2.21007 5.75264 2.27028 5.89713 2.38443C6.04163 2.49858 6.14181 2.65953 6.18043 2.83958C6.2121 3.05597 6.25169 3.26972 6.29919 3.48083C6.39064 3.89815 6.51235 4.30826 6.66335 4.70791L5.55502 5.2225C5.46025 5.26598 5.37501 5.32775 5.30418 5.40426C5.23336 5.48077 5.17834 5.57053 5.1423 5.66836C5.10626 5.76619 5.08989 5.87018 5.09415 5.97436C5.0984 6.07854 5.1232 6.18085 5.1671 6.27541C6.30647 8.71593 8.26825 10.6777 10.7088 11.8171C10.9015 11.8963 11.1177 11.8963 11.3104 11.8171C11.4092 11.7818 11.4999 11.7272 11.5774 11.6565C11.6548 11.5859 11.7175 11.5005 11.7617 11.4054L12.2525 10.2971C12.6618 10.4434 13.0795 10.5651 13.5034 10.6612C13.7145 10.7087 13.9282 10.7483 14.1446 10.78C14.3246 10.8186 14.4856 10.9188 14.5998 11.0633C14.7139 11.2078 14.7741 11.3876 14.77 11.5717L14.7859 14.0417Z" fill="#01AEF0"/>
</svg>
