<svg width="17" height="17" viewBox="0 0 17 17" fill="none" xmlns="http://www.w3.org/2000/svg">
<path d="M17 17V10.7738C17 7.71375 16.3412 5.37625 12.7712 5.37625C11.05 5.37625 9.9025 6.31125 9.435 7.20375H9.3925V5.6525H6.01375V17H9.54125V11.3688C9.54125 9.88125 9.8175 8.4575 11.645 8.4575C13.4513 8.4575 13.4725 10.1363 13.4725 11.4538V16.9788H17V17ZM0.27625 5.6525H3.80375V17H0.27625V5.6525ZM2.04 0C0.91375 0 0 0.91375 0 2.04C0 3.16625 0.91375 4.10125 2.04 4.10125C3.16625 4.10125 4.08 3.16625 4.08 2.04C4.08 0.91375 3.16625 0 2.04 0Z" fill="white"/>
</svg>
