<svg width="16" height="18" viewBox="0 0 16 18" fill="none" xmlns="http://www.w3.org/2000/svg">
<path d="M13 2.73342C11.6739 1.40734 9.87539 0.662354 8.00002 0.662354C6.12466 0.662354 4.32611 1.40734 3.00002 2.73342C1.67394 4.0595 0.928955 5.85806 0.928955 7.73342C0.928955 9.60879 1.67394 11.4073 3.00002 12.7334L7.39169 17.1334C7.46916 17.2115 7.56133 17.2735 7.66288 17.3158C7.76442 17.3581 7.87335 17.3799 7.98336 17.3799C8.09337 17.3799 8.20229 17.3581 8.30384 17.3158C8.40539 17.2735 8.49755 17.2115 8.57502 17.1334L13 12.6918C14.3206 11.3712 15.0624 9.58013 15.0624 7.71259C15.0624 5.84504 14.3206 4.05399 13 2.73342ZM11.8084 11.5001L8.00002 15.3251L4.19169 11.5001C3.43931 10.747 2.92709 9.78779 2.71977 8.74366C2.51245 7.69953 2.61935 6.61738 3.02694 5.63399C3.43454 4.6506 4.12454 3.81013 5.00971 3.21882C5.89489 2.62751 6.93551 2.31191 8.00002 2.31191C9.06454 2.31191 10.1052 2.62751 10.9903 3.21882C11.8755 3.81013 12.5655 4.6506 12.9731 5.63399C13.3807 6.61738 13.4876 7.69953 13.2803 8.74366C13.073 9.78779 12.5607 10.747 11.8084 11.5001ZM5.50002 5.17509C4.82728 5.8499 4.44952 6.76389 4.44952 7.71675C4.44952 8.66962 4.82728 9.58361 5.50002 10.2584C5.99982 10.7591 6.63635 11.101 7.32973 11.2413C8.02312 11.3815 8.74248 11.3139 9.39758 11.0469C10.0527 10.7799 10.6143 10.3253 11.0121 9.7403C11.4098 9.15527 11.626 8.46581 11.6334 7.75842C11.6371 7.28609 11.5461 6.8178 11.3658 6.38124C11.1854 5.94468 10.9194 5.54872 10.5834 5.21675C10.2531 4.8789 9.85926 4.6097 9.42454 4.42464C8.98983 4.23958 8.52281 4.14232 8.05036 4.13845C7.57791 4.13457 7.10935 4.22417 6.67167 4.40208C6.23398 4.57999 5.83579 4.8427 5.50002 5.17509ZM9.40836 9.07509C9.09256 9.39571 8.6752 9.59667 8.22763 9.64363C7.78006 9.69059 7.33008 9.58062 6.95461 9.33253C6.57915 9.08443 6.30152 8.71362 6.1692 8.28349C6.03687 7.85336 6.05806 7.39062 6.22915 6.97438C6.40024 6.55815 6.71061 6.21427 7.10718 6.00153C7.50375 5.7888 7.9619 5.72043 8.4033 5.8081C8.84471 5.89578 9.24195 6.13405 9.52711 6.4822C9.81228 6.83034 9.96766 7.26673 9.96669 7.71675C9.95457 8.23115 9.73877 8.71969 9.36669 9.07509H9.40836Z" fill="#01AEF0"/>
</svg>
