<svg width="17" height="13" viewBox="0 0 17 13" fill="none" xmlns="http://www.w3.org/2000/svg">
<path d="M14.0417 0.166748H2.95837C2.32848 0.166748 1.72439 0.416971 1.279 0.86237C0.833597 1.30777 0.583374 1.91186 0.583374 2.54175V10.4584C0.583374 11.0883 0.833597 11.6924 1.279 12.1378C1.72439 12.5832 2.32848 12.8334 2.95837 12.8334H14.0417C14.6716 12.8334 15.2757 12.5832 15.7211 12.1378C16.1665 11.6924 16.4167 11.0883 16.4167 10.4584V2.54175C16.4167 1.91186 16.1665 1.30777 15.7211 0.86237C15.2757 0.416971 14.6716 0.166748 14.0417 0.166748ZM2.95837 1.75008H14.0417C14.2517 1.75008 14.453 1.83349 14.6015 1.98196C14.75 2.13042 14.8334 2.33178 14.8334 2.54175L8.50004 6.40508L2.16671 2.54175C2.16671 2.33178 2.25011 2.13042 2.39858 1.98196C2.54705 1.83349 2.74841 1.75008 2.95837 1.75008ZM14.8334 10.4584C14.8334 10.6684 14.75 10.8697 14.6015 11.0182C14.453 11.1667 14.2517 11.2501 14.0417 11.2501H2.95837C2.74841 11.2501 2.54705 11.1667 2.39858 11.0182C2.25011 10.8697 2.16671 10.6684 2.16671 10.4584V4.34675L8.08837 7.96467C8.20872 8.03415 8.34524 8.07073 8.48421 8.07073C8.62317 8.07073 8.75969 8.03415 8.88004 7.96467L14.8334 4.34675V10.4584Z" fill="#01AEF0"/>
</svg>
